<svg width="600" height="90" viewBox="0 0 600 90" fill="none" xmlns="http://www.w3.org/2000/svg">
<path fill-rule="evenodd" clip-rule="evenodd" d="M80.7066 6.00037C83.1531 6.02867 85.2397 7.65774 85.6958 9.89573L97.0493 65.6272L102.425 55.881C103.306 54.2843 105.072 53.2803 107 53.2803H155.857C158.697 53.2803 161 55.4238 161 58.0681C161 60.7125 158.697 62.856 155.857 62.856H110.14L99.3606 82.3991C98.3575 84.218 96.2241 85.2431 94.0505 84.9506C91.8765 84.658 90.1424 83.113 89.7331 81.104L80.3212 34.9035L69.5988 81.2208C69.0958 83.394 67.0518 84.9587 64.664 84.9989C62.2763 85.0391 60.173 83.5434 59.5863 81.3884L51.2967 50.9476L45.9738 60.3084C45.0825 61.8754 43.3335 62.856 41.4286 62.856H13.1429C10.3025 62.856 8 60.7125 8 58.0681C8 55.4238 10.3025 53.2803 13.1429 53.2803H38.3322L48.4548 35.4795C49.4501 33.729 51.5001 32.7298 53.6121 32.9659C55.724 33.2014 57.4625 34.6234 57.9851 36.5429L64.1658 59.2388L75.6155 9.77915C76.1309 7.55241 78.26 5.97208 80.7066 6.00037Z" fill="url(#paint0_linear_1_28)"/>
<mask id="path-2-outside-1_1_28" maskUnits="userSpaceOnUse" x="193.591" y="20.4545" width="219" height="52" fill="black">
<rect fill="white" x="193.591" y="20.4545" width="219" height="52"/>
<path d="M195.591 69V22.4545H204.023V61.9318H224.523V69H195.591Z"/>
<path d="M241.523 69.7045C239.311 69.7045 237.318 69.3106 235.545 68.5227C233.788 67.7197 232.394 66.5379 231.364 64.9773C230.348 63.4167 229.841 61.4924 229.841 59.2045C229.841 57.2348 230.205 55.6061 230.932 54.3182C231.659 53.0303 232.652 52 233.909 51.2273C235.167 50.4545 236.583 49.8712 238.159 49.4773C239.75 49.0682 241.394 48.7727 243.091 48.5909C245.136 48.3788 246.795 48.1894 248.068 48.0227C249.341 47.8409 250.265 47.5682 250.841 47.2045C251.432 46.8258 251.727 46.2424 251.727 45.4545V45.3182C251.727 43.6061 251.22 42.2803 250.205 41.3409C249.189 40.4015 247.727 39.9318 245.818 39.9318C243.803 39.9318 242.205 40.3712 241.023 41.25C239.856 42.1288 239.068 43.1667 238.659 44.3636L230.977 43.2727C231.583 41.1515 232.583 39.3788 233.977 37.9545C235.371 36.5151 237.076 35.4394 239.091 34.7273C241.106 34 243.333 33.6364 245.773 33.6364C247.455 33.6364 249.129 33.8333 250.795 34.2273C252.462 34.6212 253.985 35.2727 255.364 36.1818C256.742 37.0758 257.848 38.2955 258.682 39.8409C259.53 41.3864 259.955 43.3182 259.955 45.6364V69H252.045V64.2045H251.773C251.273 65.1742 250.568 66.0833 249.659 66.9318C248.765 67.7651 247.636 68.4394 246.273 68.9545C244.924 69.4545 243.341 69.7045 241.523 69.7045ZM243.659 63.6591C245.311 63.6591 246.742 63.3333 247.955 62.6818C249.167 62.0151 250.098 61.1364 250.75 60.0455C251.417 58.9545 251.75 57.7652 251.75 56.4773V52.3636C251.492 52.5758 251.053 52.7727 250.432 52.9545C249.826 53.1364 249.144 53.2955 248.386 53.4318C247.629 53.5682 246.879 53.6894 246.136 53.7955C245.394 53.9015 244.75 53.9924 244.205 54.0682C242.977 54.2348 241.879 54.5076 240.909 54.8864C239.939 55.2652 239.174 55.7955 238.614 56.4773C238.053 57.1439 237.773 58.0076 237.773 59.0682C237.773 60.5833 238.326 61.7273 239.432 62.5C240.538 63.2727 241.947 63.6591 243.659 63.6591Z"/>
<path d="M268.227 69V34.0909H276.205V39.9091H276.568C277.205 37.8939 278.295 36.3409 279.841 35.25C281.402 34.1439 283.182 33.5909 285.182 33.5909C285.636 33.5909 286.144 33.6136 286.705 33.6591C287.28 33.6894 287.758 33.7424 288.136 33.8182V41.3864C287.788 41.2652 287.235 41.1591 286.477 41.0682C285.735 40.9621 285.015 40.9091 284.318 40.9091C282.818 40.9091 281.47 41.2348 280.273 41.8864C279.091 42.5227 278.159 43.4091 277.477 44.5455C276.795 45.6818 276.455 46.9924 276.455 48.4773V69H268.227Z"/>
<path d="M303.023 69.7045C300.811 69.7045 298.818 69.3106 297.045 68.5227C295.288 67.7197 293.894 66.5379 292.864 64.9773C291.848 63.4167 291.341 61.4924 291.341 59.2045C291.341 57.2348 291.705 55.6061 292.432 54.3182C293.159 53.0303 294.152 52 295.409 51.2273C296.667 50.4545 298.083 49.8712 299.659 49.4773C301.25 49.0682 302.894 48.7727 304.591 48.5909C306.636 48.3788 308.295 48.1894 309.568 48.0227C310.841 47.8409 311.765 47.5682 312.341 47.2045C312.932 46.8258 313.227 46.2424 313.227 45.4545V45.3182C313.227 43.6061 312.72 42.2803 311.705 41.3409C310.689 40.4015 309.227 39.9318 307.318 39.9318C305.303 39.9318 303.705 40.3712 302.523 41.25C301.356 42.1288 300.568 43.1667 300.159 44.3636L292.477 43.2727C293.083 41.1515 294.083 39.3788 295.477 37.9545C296.871 36.5151 298.576 35.4394 300.591 34.7273C302.606 34 304.833 33.6364 307.273 33.6364C308.955 33.6364 310.629 33.8333 312.295 34.2273C313.962 34.6212 315.485 35.2727 316.864 36.1818C318.242 37.0758 319.348 38.2955 320.182 39.8409C321.03 41.3864 321.455 43.3182 321.455 45.6364V69H313.545V64.2045H313.273C312.773 65.1742 312.068 66.0833 311.159 66.9318C310.265 67.7651 309.136 68.4394 307.773 68.9545C306.424 69.4545 304.841 69.7045 303.023 69.7045ZM305.159 63.6591C306.811 63.6591 308.242 63.3333 309.455 62.6818C310.667 62.0151 311.598 61.1364 312.25 60.0455C312.917 58.9545 313.25 57.7652 313.25 56.4773V52.3636C312.992 52.5758 312.553 52.7727 311.932 52.9545C311.326 53.1364 310.644 53.2955 309.886 53.4318C309.129 53.5682 308.379 53.6894 307.636 53.7955C306.894 53.9015 306.25 53.9924 305.705 54.0682C304.477 54.2348 303.379 54.5076 302.409 54.8864C301.439 55.2652 300.674 55.7955 300.114 56.4773C299.553 57.1439 299.273 58.0076 299.273 59.0682C299.273 60.5833 299.826 61.7273 300.932 62.5C302.038 63.2727 303.447 63.6591 305.159 63.6591Z"/>
<path d="M359.659 34.0909L347.227 69H338.136L325.705 34.0909H334.477L342.5 60.0227H342.864L350.909 34.0909H359.659Z"/>
<path d="M379.619 69.6818C376.119 69.6818 373.097 68.9545 370.551 67.5C368.021 66.0303 366.074 63.9545 364.71 61.2727C363.347 58.5758 362.665 55.4015 362.665 51.75C362.665 48.1591 363.347 45.0076 364.71 42.2955C366.089 39.5682 368.013 37.447 370.483 35.9318C372.953 34.4015 375.854 33.6364 379.188 33.6364C381.339 33.6364 383.369 33.9848 385.278 34.6818C387.203 35.3636 388.9 36.4242 390.369 37.8636C391.854 39.303 393.021 41.1364 393.869 43.3636C394.718 45.5758 395.142 48.2121 395.142 51.2727V53.7955H366.528V48.25H387.256C387.241 46.6742 386.9 45.2727 386.233 44.0455C385.566 42.803 384.634 41.8258 383.438 41.1136C382.256 40.4015 380.877 40.0455 379.301 40.0455C377.619 40.0455 376.142 40.4545 374.869 41.2727C373.597 42.0758 372.604 43.1364 371.892 44.4545C371.195 45.7576 370.839 47.1894 370.824 48.75V53.5909C370.824 55.6212 371.195 57.3636 371.938 58.8182C372.68 60.2576 373.718 61.3636 375.051 62.1364C376.384 62.8939 377.945 63.2727 379.733 63.2727C380.93 63.2727 382.013 63.1061 382.983 62.7727C383.953 62.4242 384.794 61.9167 385.506 61.25C386.218 60.5833 386.756 59.7576 387.119 58.7727L394.801 59.6364C394.316 61.6667 393.392 63.4394 392.028 64.9545C390.68 66.4545 388.953 67.6212 386.847 68.4545C384.741 69.2727 382.331 69.6818 379.619 69.6818Z"/>
<path d="M410.33 22.4545V69H402.102V22.4545H410.33Z"/>
</mask>
<path d="M195.591 69V22.4545H204.023V61.9318H224.523V69H195.591Z" fill="black"/>
<path d="M241.523 69.7045C239.311 69.7045 237.318 69.3106 235.545 68.5227C233.788 67.7197 232.394 66.5379 231.364 64.9773C230.348 63.4167 229.841 61.4924 229.841 59.2045C229.841 57.2348 230.205 55.6061 230.932 54.3182C231.659 53.0303 232.652 52 233.909 51.2273C235.167 50.4545 236.583 49.8712 238.159 49.4773C239.75 49.0682 241.394 48.7727 243.091 48.5909C245.136 48.3788 246.795 48.1894 248.068 48.0227C249.341 47.8409 250.265 47.5682 250.841 47.2045C251.432 46.8258 251.727 46.2424 251.727 45.4545V45.3182C251.727 43.6061 251.22 42.2803 250.205 41.3409C249.189 40.4015 247.727 39.9318 245.818 39.9318C243.803 39.9318 242.205 40.3712 241.023 41.25C239.856 42.1288 239.068 43.1667 238.659 44.3636L230.977 43.2727C231.583 41.1515 232.583 39.3788 233.977 37.9545C235.371 36.5151 237.076 35.4394 239.091 34.7273C241.106 34 243.333 33.6364 245.773 33.6364C247.455 33.6364 249.129 33.8333 250.795 34.2273C252.462 34.6212 253.985 35.2727 255.364 36.1818C256.742 37.0758 257.848 38.2955 258.682 39.8409C259.53 41.3864 259.955 43.3182 259.955 45.6364V69H252.045V64.2045H251.773C251.273 65.1742 250.568 66.0833 249.659 66.9318C248.765 67.7651 247.636 68.4394 246.273 68.9545C244.924 69.4545 243.341 69.7045 241.523 69.7045ZM243.659 63.6591C245.311 63.6591 246.742 63.3333 247.955 62.6818C249.167 62.0151 250.098 61.1364 250.75 60.0455C251.417 58.9545 251.75 57.7652 251.75 56.4773V52.3636C251.492 52.5758 251.053 52.7727 250.432 52.9545C249.826 53.1364 249.144 53.2955 248.386 53.4318C247.629 53.5682 246.879 53.6894 246.136 53.7955C245.394 53.9015 244.75 53.9924 244.205 54.0682C242.977 54.2348 241.879 54.5076 240.909 54.8864C239.939 55.2652 239.174 55.7955 238.614 56.4773C238.053 57.1439 237.773 58.0076 237.773 59.0682C237.773 60.5833 238.326 61.7273 239.432 62.5C240.538 63.2727 241.947 63.6591 243.659 63.6591Z" fill="black"/>
<path d="M268.227 69V34.0909H276.205V39.9091H276.568C277.205 37.8939 278.295 36.3409 279.841 35.25C281.402 34.1439 283.182 33.5909 285.182 33.5909C285.636 33.5909 286.144 33.6136 286.705 33.6591C287.28 33.6894 287.758 33.7424 288.136 33.8182V41.3864C287.788 41.2652 287.235 41.1591 286.477 41.0682C285.735 40.9621 285.015 40.9091 284.318 40.9091C282.818 40.9091 281.47 41.2348 280.273 41.8864C279.091 42.5227 278.159 43.4091 277.477 44.5455C276.795 45.6818 276.455 46.9924 276.455 48.4773V69H268.227Z" fill="black"/>
<path d="M303.023 69.7045C300.811 69.7045 298.818 69.3106 297.045 68.5227C295.288 67.7197 293.894 66.5379 292.864 64.9773C291.848 63.4167 291.341 61.4924 291.341 59.2045C291.341 57.2348 291.705 55.6061 292.432 54.3182C293.159 53.0303 294.152 52 295.409 51.2273C296.667 50.4545 298.083 49.8712 299.659 49.4773C301.25 49.0682 302.894 48.7727 304.591 48.5909C306.636 48.3788 308.295 48.1894 309.568 48.0227C310.841 47.8409 311.765 47.5682 312.341 47.2045C312.932 46.8258 313.227 46.2424 313.227 45.4545V45.3182C313.227 43.6061 312.72 42.2803 311.705 41.3409C310.689 40.4015 309.227 39.9318 307.318 39.9318C305.303 39.9318 303.705 40.3712 302.523 41.25C301.356 42.1288 300.568 43.1667 300.159 44.3636L292.477 43.2727C293.083 41.1515 294.083 39.3788 295.477 37.9545C296.871 36.5151 298.576 35.4394 300.591 34.7273C302.606 34 304.833 33.6364 307.273 33.6364C308.955 33.6364 310.629 33.8333 312.295 34.2273C313.962 34.6212 315.485 35.2727 316.864 36.1818C318.242 37.0758 319.348 38.2955 320.182 39.8409C321.03 41.3864 321.455 43.3182 321.455 45.6364V69H313.545V64.2045H313.273C312.773 65.1742 312.068 66.0833 311.159 66.9318C310.265 67.7651 309.136 68.4394 307.773 68.9545C306.424 69.4545 304.841 69.7045 303.023 69.7045ZM305.159 63.6591C306.811 63.6591 308.242 63.3333 309.455 62.6818C310.667 62.0151 311.598 61.1364 312.25 60.0455C312.917 58.9545 313.25 57.7652 313.25 56.4773V52.3636C312.992 52.5758 312.553 52.7727 311.932 52.9545C311.326 53.1364 310.644 53.2955 309.886 53.4318C309.129 53.5682 308.379 53.6894 307.636 53.7955C306.894 53.9015 306.25 53.9924 305.705 54.0682C304.477 54.2348 303.379 54.5076 302.409 54.8864C301.439 55.2652 300.674 55.7955 300.114 56.4773C299.553 57.1439 299.273 58.0076 299.273 59.0682C299.273 60.5833 299.826 61.7273 300.932 62.5C302.038 63.2727 303.447 63.6591 305.159 63.6591Z" fill="black"/>
<path d="M359.659 34.0909L347.227 69H338.136L325.705 34.0909H334.477L342.5 60.0227H342.864L350.909 34.0909H359.659Z" fill="black"/>
<path d="M379.619 69.6818C376.119 69.6818 373.097 68.9545 370.551 67.5C368.021 66.0303 366.074 63.9545 364.71 61.2727C363.347 58.5758 362.665 55.4015 362.665 51.75C362.665 48.1591 363.347 45.0076 364.71 42.2955C366.089 39.5682 368.013 37.447 370.483 35.9318C372.953 34.4015 375.854 33.6364 379.188 33.6364C381.339 33.6364 383.369 33.9848 385.278 34.6818C387.203 35.3636 388.9 36.4242 390.369 37.8636C391.854 39.303 393.021 41.1364 393.869 43.3636C394.718 45.5758 395.142 48.2121 395.142 51.2727V53.7955H366.528V48.25H387.256C387.241 46.6742 386.9 45.2727 386.233 44.0455C385.566 42.803 384.634 41.8258 383.438 41.1136C382.256 40.4015 380.877 40.0455 379.301 40.0455C377.619 40.0455 376.142 40.4545 374.869 41.2727C373.597 42.0758 372.604 43.1364 371.892 44.4545C371.195 45.7576 370.839 47.1894 370.824 48.75V53.5909C370.824 55.6212 371.195 57.3636 371.938 58.8182C372.68 60.2576 373.718 61.3636 375.051 62.1364C376.384 62.8939 377.945 63.2727 379.733 63.2727C380.93 63.2727 382.013 63.1061 382.983 62.7727C383.953 62.4242 384.794 61.9167 385.506 61.25C386.218 60.5833 386.756 59.7576 387.119 58.7727L394.801 59.6364C394.316 61.6667 393.392 63.4394 392.028 64.9545C390.68 66.4545 388.953 67.6212 386.847 68.4545C384.741 69.2727 382.331 69.6818 379.619 69.6818Z" fill="black"/>
<path d="M410.33 22.4545V69H402.102V22.4545H410.33Z" fill="black"/>
<path d="M195.591 69V22.4545H204.023V61.9318H224.523V69H195.591Z" stroke="white" stroke-width="4" mask="url(#path-2-outside-1_1_28)"/>
<path d="M241.523 69.7045C239.311 69.7045 237.318 69.3106 235.545 68.5227C233.788 67.7197 232.394 66.5379 231.364 64.9773C230.348 63.4167 229.841 61.4924 229.841 59.2045C229.841 57.2348 230.205 55.6061 230.932 54.3182C231.659 53.0303 232.652 52 233.909 51.2273C235.167 50.4545 236.583 49.8712 238.159 49.4773C239.75 49.0682 241.394 48.7727 243.091 48.5909C245.136 48.3788 246.795 48.1894 248.068 48.0227C249.341 47.8409 250.265 47.5682 250.841 47.2045C251.432 46.8258 251.727 46.2424 251.727 45.4545V45.3182C251.727 43.6061 251.22 42.2803 250.205 41.3409C249.189 40.4015 247.727 39.9318 245.818 39.9318C243.803 39.9318 242.205 40.3712 241.023 41.25C239.856 42.1288 239.068 43.1667 238.659 44.3636L230.977 43.2727C231.583 41.1515 232.583 39.3788 233.977 37.9545C235.371 36.5151 237.076 35.4394 239.091 34.7273C241.106 34 243.333 33.6364 245.773 33.6364C247.455 33.6364 249.129 33.8333 250.795 34.2273C252.462 34.6212 253.985 35.2727 255.364 36.1818C256.742 37.0758 257.848 38.2955 258.682 39.8409C259.53 41.3864 259.955 43.3182 259.955 45.6364V69H252.045V64.2045H251.773C251.273 65.1742 250.568 66.0833 249.659 66.9318C248.765 67.7651 247.636 68.4394 246.273 68.9545C244.924 69.4545 243.341 69.7045 241.523 69.7045ZM243.659 63.6591C245.311 63.6591 246.742 63.3333 247.955 62.6818C249.167 62.0151 250.098 61.1364 250.75 60.0455C251.417 58.9545 251.75 57.7652 251.75 56.4773V52.3636C251.492 52.5758 251.053 52.7727 250.432 52.9545C249.826 53.1364 249.144 53.2955 248.386 53.4318C247.629 53.5682 246.879 53.6894 246.136 53.7955C245.394 53.9015 244.75 53.9924 244.205 54.0682C242.977 54.2348 241.879 54.5076 240.909 54.8864C239.939 55.2652 239.174 55.7955 238.614 56.4773C238.053 57.1439 237.773 58.0076 237.773 59.0682C237.773 60.5833 238.326 61.7273 239.432 62.5C240.538 63.2727 241.947 63.6591 243.659 63.6591Z" stroke="white" stroke-width="4" mask="url(#path-2-outside-1_1_28)"/>
<path d="M268.227 69V34.0909H276.205V39.9091H276.568C277.205 37.8939 278.295 36.3409 279.841 35.25C281.402 34.1439 283.182 33.5909 285.182 33.5909C285.636 33.5909 286.144 33.6136 286.705 33.6591C287.28 33.6894 287.758 33.7424 288.136 33.8182V41.3864C287.788 41.2652 287.235 41.1591 286.477 41.0682C285.735 40.9621 285.015 40.9091 284.318 40.9091C282.818 40.9091 281.47 41.2348 280.273 41.8864C279.091 42.5227 278.159 43.4091 277.477 44.5455C276.795 45.6818 276.455 46.9924 276.455 48.4773V69H268.227Z" stroke="white" stroke-width="4" mask="url(#path-2-outside-1_1_28)"/>
<path d="M303.023 69.7045C300.811 69.7045 298.818 69.3106 297.045 68.5227C295.288 67.7197 293.894 66.5379 292.864 64.9773C291.848 63.4167 291.341 61.4924 291.341 59.2045C291.341 57.2348 291.705 55.6061 292.432 54.3182C293.159 53.0303 294.152 52 295.409 51.2273C296.667 50.4545 298.083 49.8712 299.659 49.4773C301.25 49.0682 302.894 48.7727 304.591 48.5909C306.636 48.3788 308.295 48.1894 309.568 48.0227C310.841 47.8409 311.765 47.5682 312.341 47.2045C312.932 46.8258 313.227 46.2424 313.227 45.4545V45.3182C313.227 43.6061 312.72 42.2803 311.705 41.3409C310.689 40.4015 309.227 39.9318 307.318 39.9318C305.303 39.9318 303.705 40.3712 302.523 41.25C301.356 42.1288 300.568 43.1667 300.159 44.3636L292.477 43.2727C293.083 41.1515 294.083 39.3788 295.477 37.9545C296.871 36.5151 298.576 35.4394 300.591 34.7273C302.606 34 304.833 33.6364 307.273 33.6364C308.955 33.6364 310.629 33.8333 312.295 34.2273C313.962 34.6212 315.485 35.2727 316.864 36.1818C318.242 37.0758 319.348 38.2955 320.182 39.8409C321.03 41.3864 321.455 43.3182 321.455 45.6364V69H313.545V64.2045H313.273C312.773 65.1742 312.068 66.0833 311.159 66.9318C310.265 67.7651 309.136 68.4394 307.773 68.9545C306.424 69.4545 304.841 69.7045 303.023 69.7045ZM305.159 63.6591C306.811 63.6591 308.242 63.3333 309.455 62.6818C310.667 62.0151 311.598 61.1364 312.25 60.0455C312.917 58.9545 313.25 57.7652 313.25 56.4773V52.3636C312.992 52.5758 312.553 52.7727 311.932 52.9545C311.326 53.1364 310.644 53.2955 309.886 53.4318C309.129 53.5682 308.379 53.6894 307.636 53.7955C306.894 53.9015 306.25 53.9924 305.705 54.0682C304.477 54.2348 303.379 54.5076 302.409 54.8864C301.439 55.2652 300.674 55.7955 300.114 56.4773C299.553 57.1439 299.273 58.0076 299.273 59.0682C299.273 60.5833 299.826 61.7273 300.932 62.5C302.038 63.2727 303.447 63.6591 305.159 63.6591Z" stroke="white" stroke-width="4" mask="url(#path-2-outside-1_1_28)"/>
<path d="M359.659 34.0909L347.227 69H338.136L325.705 34.0909H334.477L342.5 60.0227H342.864L350.909 34.0909H359.659Z" stroke="white" stroke-width="4" mask="url(#path-2-outside-1_1_28)"/>
<path d="M379.619 69.6818C376.119 69.6818 373.097 68.9545 370.551 67.5C368.021 66.0303 366.074 63.9545 364.71 61.2727C363.347 58.5758 362.665 55.4015 362.665 51.75C362.665 48.1591 363.347 45.0076 364.71 42.2955C366.089 39.5682 368.013 37.447 370.483 35.9318C372.953 34.4015 375.854 33.6364 379.188 33.6364C381.339 33.6364 383.369 33.9848 385.278 34.6818C387.203 35.3636 388.9 36.4242 390.369 37.8636C391.854 39.303 393.021 41.1364 393.869 43.3636C394.718 45.5758 395.142 48.2121 395.142 51.2727V53.7955H366.528V48.25H387.256C387.241 46.6742 386.9 45.2727 386.233 44.0455C385.566 42.803 384.634 41.8258 383.438 41.1136C382.256 40.4015 380.877 40.0455 379.301 40.0455C377.619 40.0455 376.142 40.4545 374.869 41.2727C373.597 42.0758 372.604 43.1364 371.892 44.4545C371.195 45.7576 370.839 47.1894 370.824 48.75V53.5909C370.824 55.6212 371.195 57.3636 371.938 58.8182C372.68 60.2576 373.718 61.3636 375.051 62.1364C376.384 62.8939 377.945 63.2727 379.733 63.2727C380.93 63.2727 382.013 63.1061 382.983 62.7727C383.953 62.4242 384.794 61.9167 385.506 61.25C386.218 60.5833 386.756 59.7576 387.119 58.7727L394.801 59.6364C394.316 61.6667 393.392 63.4394 392.028 64.9545C390.68 66.4545 388.953 67.6212 386.847 68.4545C384.741 69.2727 382.331 69.6818 379.619 69.6818Z" stroke="white" stroke-width="4" mask="url(#path-2-outside-1_1_28)"/>
<path d="M410.33 22.4545V69H402.102V22.4545H410.33Z" stroke="white" stroke-width="4" mask="url(#path-2-outside-1_1_28)"/>
<mask id="path-3-outside-2_1_28" maskUnits="userSpaceOnUse" x="431.051" y="20.4545" width="163" height="52" fill="black">
<rect fill="white" x="431.051" y="20.4545" width="163" height="52"/>
<path d="M433.051 69V22.4545H449.642C453.263 22.4545 456.263 23.1136 458.642 24.4318C461.021 25.75 462.801 27.553 463.983 29.8409C465.165 32.1136 465.756 34.6742 465.756 37.5227C465.756 40.3864 465.157 42.9621 463.96 45.25C462.778 47.5227 460.991 49.3258 458.597 50.6591C456.218 51.9773 453.225 52.6364 449.619 52.6364H438.21V46.6818H448.983C451.271 46.6818 453.127 46.2879 454.551 45.5C455.975 44.697 457.021 43.6061 457.688 42.2273C458.354 40.8485 458.688 39.2803 458.688 37.5227C458.688 35.7652 458.354 34.2045 457.688 32.8409C457.021 31.4773 455.968 30.4091 454.528 29.6364C453.104 28.8636 451.225 28.4773 448.892 28.4773H440.074V69H433.051Z"/>
<path d="M495.557 54.5227V34.0909H502.375V69H495.693V62.9545H495.33C494.527 64.8182 493.239 66.3712 491.466 67.6136C489.708 68.8409 487.519 69.4545 484.898 69.4545C482.655 69.4545 480.67 68.9621 478.943 67.9773C477.231 66.9773 475.883 65.5 474.898 63.5455C473.928 61.5909 473.443 59.1742 473.443 56.2955V34.0909H480.239V55.4773C480.239 57.8561 480.898 59.75 482.216 61.1591C483.534 62.5682 485.246 63.2727 487.352 63.2727C488.625 63.2727 489.89 62.9545 491.148 62.3182C492.42 61.6818 493.473 60.7197 494.307 59.4318C495.155 58.1439 495.572 56.5076 495.557 54.5227Z"/>
<path d="M518.301 22.4545V69H511.506V22.4545H518.301Z"/>
<path d="M553.602 42.6136L547.443 43.7045C547.186 42.9167 546.777 42.1667 546.216 41.4545C545.67 40.7424 544.928 40.1591 543.989 39.7045C543.049 39.25 541.875 39.0227 540.466 39.0227C538.542 39.0227 536.936 39.4545 535.648 40.3182C534.36 41.1667 533.716 42.2652 533.716 43.6136C533.716 44.7803 534.148 45.7197 535.011 46.4318C535.875 47.1439 537.269 47.7273 539.193 48.1818L544.739 49.4545C547.951 50.197 550.345 51.3409 551.92 52.8864C553.496 54.4318 554.284 56.4394 554.284 58.9091C554.284 61 553.678 62.8636 552.466 64.5C551.269 66.1212 549.595 67.3939 547.443 68.3182C545.307 69.2424 542.83 69.7045 540.011 69.7045C536.102 69.7045 532.913 68.8712 530.443 67.2045C527.973 65.5227 526.458 63.1364 525.898 60.0455L532.466 59.0455C532.875 60.7576 533.716 62.053 534.989 62.9318C536.261 63.7955 537.92 64.2273 539.966 64.2273C542.193 64.2273 543.973 63.7652 545.307 62.8409C546.64 61.9015 547.307 60.7576 547.307 59.4091C547.307 58.3182 546.898 57.4015 546.08 56.6591C545.277 55.9167 544.042 55.3561 542.375 54.9773L536.466 53.6818C533.208 52.9394 530.799 51.7576 529.239 50.1364C527.693 48.5152 526.92 46.4621 526.92 43.9773C526.92 41.9167 527.496 40.1136 528.648 38.5682C529.799 37.0227 531.39 35.8182 533.42 34.9545C535.451 34.0758 537.777 33.6364 540.398 33.6364C544.17 33.6364 547.14 34.4545 549.307 36.0909C551.473 37.7121 552.905 39.8864 553.602 42.6136Z"/>
<path d="M576.801 69.7045C573.362 69.7045 570.4 68.9697 567.915 67.5C565.445 66.0152 563.536 63.9318 562.188 61.25C560.854 58.553 560.188 55.3939 560.188 51.7727C560.188 48.197 560.854 45.0455 562.188 42.3182C563.536 39.5909 565.415 37.4621 567.824 35.9318C570.248 34.4015 573.081 33.6364 576.324 33.6364C578.294 33.6364 580.203 33.9621 582.051 34.6136C583.9 35.2652 585.559 36.2879 587.028 37.6818C588.498 39.0758 589.657 40.8864 590.506 43.1136C591.354 45.3258 591.778 48.0152 591.778 51.1818V53.5909H564.028V48.5H585.119C585.119 46.7121 584.756 45.1288 584.028 43.75C583.301 42.3561 582.278 41.2576 580.96 40.4545C579.657 39.6515 578.127 39.25 576.369 39.25C574.46 39.25 572.794 39.7197 571.369 40.6591C569.96 41.5833 568.869 42.7955 568.097 44.2955C567.339 45.7803 566.96 47.3939 566.96 49.1364V53.1136C566.96 55.447 567.369 57.4318 568.188 59.0682C569.021 60.7045 570.18 61.9545 571.665 62.8182C573.15 63.6667 574.884 64.0909 576.869 64.0909C578.157 64.0909 579.331 63.9091 580.392 63.5455C581.453 63.1667 582.369 62.6061 583.142 61.8636C583.915 61.1212 584.506 60.2045 584.915 59.1136L591.347 60.2727C590.831 62.1667 589.907 63.8258 588.574 65.25C587.256 66.6591 585.597 67.7576 583.597 68.5455C581.612 69.3182 579.347 69.7045 576.801 69.7045Z"/>
</mask>
<path d="M433.051 69V22.4545H449.642C453.263 22.4545 456.263 23.1136 458.642 24.4318C461.021 25.75 462.801 27.553 463.983 29.8409C465.165 32.1136 465.756 34.6742 465.756 37.5227C465.756 40.3864 465.157 42.9621 463.96 45.25C462.778 47.5227 460.991 49.3258 458.597 50.6591C456.218 51.9773 453.225 52.6364 449.619 52.6364H438.21V46.6818H448.983C451.271 46.6818 453.127 46.2879 454.551 45.5C455.975 44.697 457.021 43.6061 457.688 42.2273C458.354 40.8485 458.688 39.2803 458.688 37.5227C458.688 35.7652 458.354 34.2045 457.688 32.8409C457.021 31.4773 455.968 30.4091 454.528 29.6364C453.104 28.8636 451.225 28.4773 448.892 28.4773H440.074V69H433.051Z" fill="black"/>
<path d="M495.557 54.5227V34.0909H502.375V69H495.693V62.9545H495.33C494.527 64.8182 493.239 66.3712 491.466 67.6136C489.708 68.8409 487.519 69.4545 484.898 69.4545C482.655 69.4545 480.67 68.9621 478.943 67.9773C477.231 66.9773 475.883 65.5 474.898 63.5455C473.928 61.5909 473.443 59.1742 473.443 56.2955V34.0909H480.239V55.4773C480.239 57.8561 480.898 59.75 482.216 61.1591C483.534 62.5682 485.246 63.2727 487.352 63.2727C488.625 63.2727 489.89 62.9545 491.148 62.3182C492.42 61.6818 493.473 60.7197 494.307 59.4318C495.155 58.1439 495.572 56.5076 495.557 54.5227Z" fill="black"/>
<path d="M518.301 22.4545V69H511.506V22.4545H518.301Z" fill="black"/>
<path d="M553.602 42.6136L547.443 43.7045C547.186 42.9167 546.777 42.1667 546.216 41.4545C545.67 40.7424 544.928 40.1591 543.989 39.7045C543.049 39.25 541.875 39.0227 540.466 39.0227C538.542 39.0227 536.936 39.4545 535.648 40.3182C534.36 41.1667 533.716 42.2652 533.716 43.6136C533.716 44.7803 534.148 45.7197 535.011 46.4318C535.875 47.1439 537.269 47.7273 539.193 48.1818L544.739 49.4545C547.951 50.197 550.345 51.3409 551.92 52.8864C553.496 54.4318 554.284 56.4394 554.284 58.9091C554.284 61 553.678 62.8636 552.466 64.5C551.269 66.1212 549.595 67.3939 547.443 68.3182C545.307 69.2424 542.83 69.7045 540.011 69.7045C536.102 69.7045 532.913 68.8712 530.443 67.2045C527.973 65.5227 526.458 63.1364 525.898 60.0455L532.466 59.0455C532.875 60.7576 533.716 62.053 534.989 62.9318C536.261 63.7955 537.92 64.2273 539.966 64.2273C542.193 64.2273 543.973 63.7652 545.307 62.8409C546.64 61.9015 547.307 60.7576 547.307 59.4091C547.307 58.3182 546.898 57.4015 546.08 56.6591C545.277 55.9167 544.042 55.3561 542.375 54.9773L536.466 53.6818C533.208 52.9394 530.799 51.7576 529.239 50.1364C527.693 48.5152 526.92 46.4621 526.92 43.9773C526.92 41.9167 527.496 40.1136 528.648 38.5682C529.799 37.0227 531.39 35.8182 533.42 34.9545C535.451 34.0758 537.777 33.6364 540.398 33.6364C544.17 33.6364 547.14 34.4545 549.307 36.0909C551.473 37.7121 552.905 39.8864 553.602 42.6136Z" fill="black"/>
<path d="M576.801 69.7045C573.362 69.7045 570.4 68.9697 567.915 67.5C565.445 66.0152 563.536 63.9318 562.188 61.25C560.854 58.553 560.188 55.3939 560.188 51.7727C560.188 48.197 560.854 45.0455 562.188 42.3182C563.536 39.5909 565.415 37.4621 567.824 35.9318C570.248 34.4015 573.081 33.6364 576.324 33.6364C578.294 33.6364 580.203 33.9621 582.051 34.6136C583.9 35.2652 585.559 36.2879 587.028 37.6818C588.498 39.0758 589.657 40.8864 590.506 43.1136C591.354 45.3258 591.778 48.0152 591.778 51.1818V53.5909H564.028V48.5H585.119C585.119 46.7121 584.756 45.1288 584.028 43.75C583.301 42.3561 582.278 41.2576 580.96 40.4545C579.657 39.6515 578.127 39.25 576.369 39.25C574.46 39.25 572.794 39.7197 571.369 40.6591C569.96 41.5833 568.869 42.7955 568.097 44.2955C567.339 45.7803 566.96 47.3939 566.96 49.1364V53.1136C566.96 55.447 567.369 57.4318 568.188 59.0682C569.021 60.7045 570.18 61.9545 571.665 62.8182C573.15 63.6667 574.884 64.0909 576.869 64.0909C578.157 64.0909 579.331 63.9091 580.392 63.5455C581.453 63.1667 582.369 62.6061 583.142 61.8636C583.915 61.1212 584.506 60.2045 584.915 59.1136L591.347 60.2727C590.831 62.1667 589.907 63.8258 588.574 65.25C587.256 66.6591 585.597 67.7576 583.597 68.5455C581.612 69.3182 579.347 69.7045 576.801 69.7045Z" fill="black"/>
<path d="M433.051 69V22.4545H449.642C453.263 22.4545 456.263 23.1136 458.642 24.4318C461.021 25.75 462.801 27.553 463.983 29.8409C465.165 32.1136 465.756 34.6742 465.756 37.5227C465.756 40.3864 465.157 42.9621 463.96 45.25C462.778 47.5227 460.991 49.3258 458.597 50.6591C456.218 51.9773 453.225 52.6364 449.619 52.6364H438.21V46.6818H448.983C451.271 46.6818 453.127 46.2879 454.551 45.5C455.975 44.697 457.021 43.6061 457.688 42.2273C458.354 40.8485 458.688 39.2803 458.688 37.5227C458.688 35.7652 458.354 34.2045 457.688 32.8409C457.021 31.4773 455.968 30.4091 454.528 29.6364C453.104 28.8636 451.225 28.4773 448.892 28.4773H440.074V69H433.051Z" stroke="white" stroke-width="4" mask="url(#path-3-outside-2_1_28)"/>
<path d="M495.557 54.5227V34.0909H502.375V69H495.693V62.9545H495.33C494.527 64.8182 493.239 66.3712 491.466 67.6136C489.708 68.8409 487.519 69.4545 484.898 69.4545C482.655 69.4545 480.67 68.9621 478.943 67.9773C477.231 66.9773 475.883 65.5 474.898 63.5455C473.928 61.5909 473.443 59.1742 473.443 56.2955V34.0909H480.239V55.4773C480.239 57.8561 480.898 59.75 482.216 61.1591C483.534 62.5682 485.246 63.2727 487.352 63.2727C488.625 63.2727 489.89 62.9545 491.148 62.3182C492.42 61.6818 493.473 60.7197 494.307 59.4318C495.155 58.1439 495.572 56.5076 495.557 54.5227Z" stroke="white" stroke-width="4" mask="url(#path-3-outside-2_1_28)"/>
<path d="M518.301 22.4545V69H511.506V22.4545H518.301Z" stroke="white" stroke-width="4" mask="url(#path-3-outside-2_1_28)"/>
<path d="M553.602 42.6136L547.443 43.7045C547.186 42.9167 546.777 42.1667 546.216 41.4545C545.67 40.7424 544.928 40.1591 543.989 39.7045C543.049 39.25 541.875 39.0227 540.466 39.0227C538.542 39.0227 536.936 39.4545 535.648 40.3182C534.36 41.1667 533.716 42.2652 533.716 43.6136C533.716 44.7803 534.148 45.7197 535.011 46.4318C535.875 47.1439 537.269 47.7273 539.193 48.1818L544.739 49.4545C547.951 50.197 550.345 51.3409 551.92 52.8864C553.496 54.4318 554.284 56.4394 554.284 58.9091C554.284 61 553.678 62.8636 552.466 64.5C551.269 66.1212 549.595 67.3939 547.443 68.3182C545.307 69.2424 542.83 69.7045 540.011 69.7045C536.102 69.7045 532.913 68.8712 530.443 67.2045C527.973 65.5227 526.458 63.1364 525.898 60.0455L532.466 59.0455C532.875 60.7576 533.716 62.053 534.989 62.9318C536.261 63.7955 537.92 64.2273 539.966 64.2273C542.193 64.2273 543.973 63.7652 545.307 62.8409C546.64 61.9015 547.307 60.7576 547.307 59.4091C547.307 58.3182 546.898 57.4015 546.08 56.6591C545.277 55.9167 544.042 55.3561 542.375 54.9773L536.466 53.6818C533.208 52.9394 530.799 51.7576 529.239 50.1364C527.693 48.5152 526.92 46.4621 526.92 43.9773C526.92 41.9167 527.496 40.1136 528.648 38.5682C529.799 37.0227 531.39 35.8182 533.42 34.9545C535.451 34.0758 537.777 33.6364 540.398 33.6364C544.17 33.6364 547.14 34.4545 549.307 36.0909C551.473 37.7121 552.905 39.8864 553.602 42.6136Z" stroke="white" stroke-width="4" mask="url(#path-3-outside-2_1_28)"/>
<path d="M576.801 69.7045C573.362 69.7045 570.4 68.9697 567.915 67.5C565.445 66.0152 563.536 63.9318 562.188 61.25C560.854 58.553 560.188 55.3939 560.188 51.7727C560.188 48.197 560.854 45.0455 562.188 42.3182C563.536 39.5909 565.415 37.4621 567.824 35.9318C570.248 34.4015 573.081 33.6364 576.324 33.6364C578.294 33.6364 580.203 33.9621 582.051 34.6136C583.9 35.2652 585.559 36.2879 587.028 37.6818C588.498 39.0758 589.657 40.8864 590.506 43.1136C591.354 45.3258 591.778 48.0152 591.778 51.1818V53.5909H564.028V48.5H585.119C585.119 46.7121 584.756 45.1288 584.028 43.75C583.301 42.3561 582.278 41.2576 580.96 40.4545C579.657 39.6515 578.127 39.25 576.369 39.25C574.46 39.25 572.794 39.7197 571.369 40.6591C569.96 41.5833 568.869 42.7955 568.097 44.2955C567.339 45.7803 566.96 47.3939 566.96 49.1364V53.1136C566.96 55.447 567.369 57.4318 568.188 59.0682C569.021 60.7045 570.18 61.9545 571.665 62.8182C573.15 63.6667 574.884 64.0909 576.869 64.0909C578.157 64.0909 579.331 63.9091 580.392 63.5455C581.453 63.1667 582.369 62.6061 583.142 61.8636C583.915 61.1212 584.506 60.2045 584.915 59.1136L591.347 60.2727C590.831 62.1667 589.907 63.8258 588.574 65.25C587.256 66.6591 585.597 67.7576 583.597 68.5455C581.612 69.3182 579.347 69.7045 576.801 69.7045Z" stroke="white" stroke-width="4" mask="url(#path-3-outside-2_1_28)"/>
<defs>
<linearGradient id="paint0_linear_1_28" x1="84.5" y1="5.99999" x2="84.5" y2="84.9999" gradientUnits="userSpaceOnUse">
<stop stop-color="#F85A5A"/>
<stop offset="0.828125" stop-color="#7A5AF8"/>
</linearGradient>
</defs>
</svg>
