<svg width="600" height="90" viewBox="0 0 600 90" fill="none" xmlns="http://www.w3.org/2000/svg">
    <style>
        g path { fill: #000 } @media (prefers-color-scheme:dark) { g path { fill: #fff } }
    </style>
    <path fill-rule="evenodd" clip-rule="evenodd" d="M80.7066 6.00037C83.1531 6.02867 85.2397 7.65774 85.6958 9.89573L97.0493 65.6272L102.425 55.881C103.306 54.2843 105.072 53.2803 107 53.2803H155.857C158.697 53.2803 161 55.4238 161 58.0681C161 60.7125 158.697 62.856 155.857 62.856H110.14L99.3606 82.3991C98.3575 84.218 96.2241 85.2431 94.0505 84.9506C91.8765 84.658 90.1424 83.113 89.7331 81.104L80.3212 34.9035L69.5988 81.2208C69.0958 83.394 67.0518 84.9587 64.664 84.9989C62.2763 85.0391 60.173 83.5434 59.5863 81.3884L51.2967 50.9476L45.9738 60.3084C45.0825 61.8754 43.3335 62.856 41.4286 62.856H13.1429C10.3025 62.856 8 60.7125 8 58.0681C8 55.4238 10.3025 53.2803 13.1429 53.2803H38.3322L48.4548 35.4795C49.4501 33.729 51.5001 32.7298 53.6121 32.9659C55.724 33.2014 57.4625 34.6234 57.9851 36.5429L64.1658 59.2388L75.6155 9.77915C76.1309 7.55241 78.26 5.97208 80.7066 6.00037Z" fill="url(#paint0_linear_3_15)"/>
    <g>
        <path d="M195.591 22.4545V69H224.523V61.9318H204.023V22.4545H195.591Z"/>
        <path fill-rule="evenodd" clip-rule="evenodd" d="M235.545 68.5227C237.318 69.3106 239.311 69.7045 241.523 69.7045C243.341 69.7045 244.924 69.4545 246.273 68.9545C247.636 68.4394 248.765 67.7651 249.659 66.9318C250.568 66.0833 251.273 65.1742 251.773 64.2045H252.045V69H259.955V45.6364C259.955 43.3182 259.53 41.3864 258.682 39.8409C257.848 38.2955 256.742 37.0758 255.364 36.1818C253.985 35.2727 252.462 34.6212 250.795 34.2273C249.129 33.8333 247.455 33.6364 245.773 33.6364C243.333 33.6364 241.106 34 239.091 34.7273C237.076 35.4394 235.371 36.5151 233.977 37.9545C232.583 39.3788 231.583 41.1515 230.977 43.2727L238.659 44.3636C239.068 43.1667 239.856 42.1288 241.023 41.25C242.205 40.3712 243.803 39.9318 245.818 39.9318C247.727 39.9318 249.189 40.4015 250.205 41.3409C251.22 42.2803 251.727 43.6061 251.727 45.3182V45.4545C251.727 46.2424 251.432 46.8258 250.841 47.2045C250.265 47.5682 249.341 47.8409 248.068 48.0227C246.795 48.1894 245.136 48.3788 243.091 48.5909C241.394 48.7727 239.75 49.0682 238.159 49.4773C236.583 49.8712 235.167 50.4545 233.909 51.2273C232.652 52 231.659 53.0303 230.932 54.3182C230.205 55.6061 229.841 57.2348 229.841 59.2045C229.841 61.4924 230.348 63.4167 231.364 64.9773C232.394 66.5379 233.788 67.7197 235.545 68.5227ZM247.955 62.6818C246.742 63.3333 245.311 63.6591 243.659 63.6591C241.947 63.6591 240.538 63.2727 239.432 62.5C238.326 61.7273 237.773 60.5833 237.773 59.0682C237.773 58.0076 238.053 57.1439 238.614 56.4773C239.174 55.7955 239.939 55.2652 240.909 54.8864C241.879 54.5076 242.977 54.2348 244.205 54.0682C244.75 53.9924 245.394 53.9015 246.136 53.7955C246.879 53.6894 247.629 53.5682 248.386 53.4318C249.144 53.2955 249.826 53.1364 250.432 52.9545C251.053 52.7727 251.492 52.5758 251.75 52.3636V56.4773C251.75 57.7652 251.417 58.9545 250.75 60.0455C250.098 61.1364 249.167 62.0151 247.955 62.6818Z"/>
        <path d="M268.227 69V34.0909H276.205V39.9091H276.568C277.205 37.8939 278.295 36.3409 279.841 35.25C281.402 34.1439 283.182 33.5909 285.182 33.5909C285.636 33.5909 286.144 33.6136 286.705 33.6591C287.28 33.6894 287.758 33.7424 288.136 33.8182V41.3864C287.788 41.2652 287.235 41.1591 286.477 41.0682C285.735 40.9621 285.015 40.9091 284.318 40.9091C282.818 40.9091 281.47 41.2348 280.273 41.8864C279.091 42.5227 278.159 43.4091 277.477 44.5455C276.795 45.6818 276.455 46.9924 276.455 48.4773V69H268.227Z"/>
        <path fill-rule="evenodd" clip-rule="evenodd" d="M297.045 68.5227C298.818 69.3106 300.811 69.7045 303.023 69.7045C304.841 69.7045 306.424 69.4545 307.773 68.9545C309.136 68.4394 310.265 67.7651 311.159 66.9318C312.068 66.0833 312.773 65.1742 313.273 64.2045H313.545V69H321.455V45.6364C321.455 43.3182 321.03 41.3864 320.182 39.8409C319.348 38.2955 318.242 37.0758 316.864 36.1818C315.485 35.2727 313.962 34.6212 312.295 34.2273C310.629 33.8333 308.955 33.6364 307.273 33.6364C304.833 33.6364 302.606 34 300.591 34.7273C298.576 35.4394 296.871 36.5151 295.477 37.9545C294.083 39.3788 293.083 41.1515 292.477 43.2727L300.159 44.3636C300.568 43.1667 301.356 42.1288 302.523 41.25C303.705 40.3712 305.303 39.9318 307.318 39.9318C309.227 39.9318 310.689 40.4015 311.705 41.3409C312.72 42.2803 313.227 43.6061 313.227 45.3182V45.4545C313.227 46.2424 312.932 46.8258 312.341 47.2045C311.765 47.5682 310.841 47.8409 309.568 48.0227C308.295 48.1894 306.636 48.3788 304.591 48.5909C302.894 48.7727 301.25 49.0682 299.659 49.4773C298.083 49.8712 296.667 50.4545 295.409 51.2273C294.152 52 293.159 53.0303 292.432 54.3182C291.705 55.6061 291.341 57.2348 291.341 59.2045C291.341 61.4924 291.848 63.4167 292.864 64.9773C293.894 66.5379 295.288 67.7197 297.045 68.5227ZM309.455 62.6818C308.242 63.3333 306.811 63.6591 305.159 63.6591C303.447 63.6591 302.038 63.2727 300.932 62.5C299.826 61.7273 299.273 60.5833 299.273 59.0682C299.273 58.0076 299.553 57.1439 300.114 56.4773C300.674 55.7955 301.439 55.2652 302.409 54.8864C303.379 54.5076 304.477 54.2348 305.705 54.0682C306.25 53.9924 306.894 53.9015 307.636 53.7955C308.379 53.6894 309.129 53.5682 309.886 53.4318C310.644 53.2955 311.326 53.1364 311.932 52.9545C312.553 52.7727 312.992 52.5758 313.25 52.3636V56.4773C313.25 57.7652 312.917 58.9545 312.25 60.0455C311.598 61.1364 310.667 62.0151 309.455 62.6818Z"/>
        <path d="M359.659 34.0909L347.227 69H338.136L325.705 34.0909H334.477L342.5 60.0227H342.864L350.909 34.0909H359.659Z"/>
        <path d="M410.33 22.4545V69H402.102V22.4545H410.33Z"/>
        <path fill-rule="evenodd" clip-rule="evenodd" d="M379.619 69.6818C376.119 69.6818 373.097 68.9545 370.551 67.5C368.021 66.0303 366.074 63.9545 364.71 61.2727C363.347 58.5758 362.665 55.4015 362.665 51.75C362.665 48.1591 363.347 45.0076 364.71 42.2955C366.089 39.5682 368.013 37.447 370.483 35.9318C372.953 34.4015 375.854 33.6364 379.188 33.6364C381.339 33.6364 383.369 33.9848 385.278 34.6818C387.203 35.3636 388.9 36.4242 390.369 37.8636C391.854 39.303 393.021 41.1364 393.869 43.3636C394.718 45.5758 395.142 48.2121 395.142 51.2727V53.7955H370.825C370.849 55.7385 371.22 57.4127 371.938 58.8182C372.68 60.2576 373.718 61.3636 375.051 62.1364C376.384 62.8939 377.945 63.2727 379.733 63.2727C380.93 63.2727 382.013 63.1061 382.983 62.7727C383.953 62.4242 384.794 61.9167 385.506 61.25C386.218 60.5833 386.756 59.7576 387.119 58.7727L394.801 59.6364C394.316 61.6667 393.392 63.4394 392.028 64.9545C390.68 66.4545 388.953 67.6212 386.847 68.4545C384.741 69.2727 382.331 69.6818 379.619 69.6818ZM371.892 44.4545C371.27 45.6172 370.92 46.8823 370.841 48.25H387.256C387.241 46.6742 386.9 45.2727 386.233 44.0455C385.566 42.803 384.634 41.8258 383.438 41.1136C382.256 40.4015 380.877 40.0455 379.301 40.0455C377.619 40.0455 376.142 40.4545 374.869 41.2727C373.597 42.0758 372.604 43.1364 371.892 44.4545Z"/>
        <path fill-rule="evenodd" clip-rule="evenodd" d="M433.051 69V22.4545H449.642C453.263 22.4545 456.263 23.1136 458.642 24.4318C461.021 25.75 462.801 27.553 463.983 29.8409C465.165 32.1136 465.756 34.6742 465.756 37.5227C465.756 40.3864 465.157 42.9621 463.96 45.25C462.778 47.5227 460.991 49.3258 458.597 50.6591C456.218 51.9773 453.225 52.6364 449.619 52.6364H440.074V69H433.051ZM448.983 46.6818H440.074V28.4773H448.892C451.225 28.4773 453.104 28.8636 454.528 29.6364C455.968 30.4091 457.021 31.4773 457.688 32.8409C458.354 34.2045 458.688 35.7652 458.688 37.5227C458.688 39.2803 458.354 40.8485 457.688 42.2273C457.021 43.6061 455.975 44.697 454.551 45.5C453.127 46.2879 451.271 46.6818 448.983 46.6818Z"/>
        <path d="M495.557 54.5227V34.0909H502.375V69H495.693V62.9545H495.33C494.527 64.8182 493.239 66.3712 491.466 67.6136C489.708 68.8409 487.519 69.4545 484.898 69.4545C482.655 69.4545 480.67 68.9621 478.943 67.9773C477.231 66.9773 475.883 65.5 474.898 63.5455C473.928 61.5909 473.443 59.1742 473.443 56.2955V34.0909H480.239V55.4773C480.239 57.8561 480.898 59.75 482.216 61.1591C483.534 62.5682 485.246 63.2727 487.352 63.2727C488.625 63.2727 489.89 62.9545 491.148 62.3182C492.42 61.6818 493.473 60.7197 494.307 59.4318C495.155 58.1439 495.572 56.5076 495.557 54.5227Z"/>
        <path d="M518.301 69V22.4545H511.506V69H518.301Z"/>
        <path d="M553.602 42.6136L547.443 43.7045C547.186 42.9167 546.777 42.1667 546.216 41.4545C545.67 40.7424 544.928 40.1591 543.989 39.7045C543.049 39.25 541.875 39.0227 540.466 39.0227C538.542 39.0227 536.936 39.4545 535.648 40.3182C534.36 41.1667 533.716 42.2652 533.716 43.6136C533.716 44.7803 534.148 45.7197 535.011 46.4318C535.875 47.1439 537.269 47.7273 539.193 48.1818L544.739 49.4545C547.951 50.197 550.345 51.3409 551.92 52.8864C553.496 54.4318 554.284 56.4394 554.284 58.9091C554.284 61 553.678 62.8636 552.466 64.5C551.269 66.1212 549.595 67.3939 547.443 68.3182C545.307 69.2424 542.83 69.7045 540.011 69.7045C536.102 69.7045 532.913 68.8712 530.443 67.2045C527.973 65.5227 526.458 63.1364 525.898 60.0455L532.466 59.0455C532.875 60.7576 533.716 62.053 534.989 62.9318C536.261 63.7955 537.92 64.2273 539.966 64.2273C542.193 64.2273 543.973 63.7652 545.307 62.8409C546.64 61.9015 547.307 60.7576 547.307 59.4091C547.307 58.3182 546.898 57.4015 546.08 56.6591C545.277 55.9167 544.042 55.3561 542.375 54.9773L536.466 53.6818C533.208 52.9394 530.799 51.7576 529.239 50.1364C527.693 48.5152 526.92 46.4621 526.92 43.9773C526.92 41.9167 527.496 40.1136 528.648 38.5682C529.799 37.0227 531.39 35.8182 533.42 34.9545C535.451 34.0758 537.777 33.6364 540.398 33.6364C544.17 33.6364 547.14 34.4545 549.307 36.0909C551.473 37.7121 552.905 39.8864 553.602 42.6136Z"/>
        <path fill-rule="evenodd" clip-rule="evenodd" d="M567.915 67.5C570.4 68.9697 573.362 69.7045 576.801 69.7045C579.347 69.7045 581.612 69.3182 583.597 68.5455C585.597 67.7576 587.256 66.6591 588.574 65.25C589.907 63.8258 590.831 62.1667 591.347 60.2727L584.915 59.1136C584.506 60.2045 583.915 61.1212 583.142 61.8636C582.369 62.6061 581.453 63.1667 580.392 63.5455C579.331 63.9091 578.157 64.0909 576.869 64.0909C574.884 64.0909 573.15 63.6667 571.665 62.8182C570.18 61.9545 569.021 60.7045 568.188 59.0682C567.425 57.5445 567.018 55.7188 566.966 53.5909H591.778V51.1818C591.778 48.0152 591.354 45.3258 590.506 43.1136C589.657 40.8864 588.498 39.0758 587.028 37.6818C585.559 36.2879 583.9 35.2652 582.051 34.6136C580.203 33.9621 578.294 33.6364 576.324 33.6364C573.081 33.6364 570.248 34.4015 567.824 35.9318C565.415 37.4621 563.536 39.5909 562.188 42.3182C560.854 45.0455 560.188 48.197 560.188 51.7727C560.188 55.3939 560.854 58.553 562.188 61.25C563.536 63.9318 565.445 66.0152 567.915 67.5ZM566.977 48.5C567.059 46.9994 567.432 45.5979 568.097 44.2955C568.869 42.7955 569.96 41.5833 571.369 40.6591C572.794 39.7197 574.46 39.25 576.369 39.25C578.127 39.25 579.657 39.6515 580.96 40.4545C582.278 41.2576 583.301 42.3561 584.028 43.75C584.756 45.1288 585.119 46.7121 585.119 48.5H566.977Z"/>
    </g>
    <defs>
        <linearGradient id="paint0_linear_3_15" x1="84.5" y1="5.99999" x2="84.5" y2="84.9999" gradientUnits="userSpaceOnUse">
            <stop stop-color="#F85A5A"/>
            <stop offset="0.828125" stop-color="#7A5AF8"/>
        </linearGradient>
    </defs>
</svg>
